<?xml version="1.0"?>
<!-- Generated by SVGo -->
<svg width="500" height="500"
     xmlns="http://www.w3.org/2000/svg"
     xmlns:xlink="http://www.w3.org/1999/xlink">
     
     <polygon fill="#ff00ff" points="150,10 155,10 160,10 160,7 170,15 160,23 160,20 155,20 150,20"/>
     <g id="Abds" fill="#ff00ff" points="150,10 155,10 160,10 160,7 170,15 160,23 160,20 155,20 150,20">
          <polygon fill="#ff00ff" points="150,10 155,10 160,10 160,7 170,15 160,23 160,20 155,20 150,20"/>
     </g>

     <g id="BBBB" fill="#ff00ff" points="150,10">
          <polygon fill="#ff00ff" points="150,10"/>
          <polygon fill="#ff00ff" points="200,10"/>
     </g>

     <g id="CCCC" fill="#ff00ff" points="150,10">
          <text id="A3" x="150" y="250" fill="#0000FF" style="font-size:30px;" >Hello, SVG11</text>
          <text id="A4" x="150" y="250" fill="#0000FF" style="font-size:30px;" >Hello, SVG22</text>
          <text id="A5" x="150" y="250" fill="#0000FF" style="font-size:30px;" >Hello, SVG33</text>

          <text id="text2" x="130" y="15" fill="#00ffff" font-size="5">소요시간</text>
     </g>


     <g id="DDDD" fill="#ff00ff" points="150,10">
          <path id="path-1" d="M40,10L50,10L80,10L80,7L90,15L80,23L80,20L55,20L40,20L40,10"/>
		<path id="path-2" d="M100,10L110,10L110,7L120,15L110,23L110,20L100,20"/>
     </g>

     
</svg>
